<?xml version="1.0" encoding="UTF-8"?>
<svg xmlns="http://www.w3.org/2000/svg" xmlns:xlink="http://www.w3.org/1999/xlink" width="810pt" height="809.999993pt" viewBox="0 0 810 809.999993" version="1.2">
<g id="surface1">
<path style=" stroke:none;fill-rule:evenodd;fill:rgb(0%,32.939148%,61.569214%);fill-opacity:1;" d="M 379.539062 7.308594 C 392.40625 0.09375 408.246094 0.09375 421.09375 7.308594 C 484.671875 42.972656 675.984375 150.320312 739.578125 185.980469 C 752.445312 193.179688 760.367188 206.511719 760.367188 220.945312 C 760.367188 292.269531 760.367188 506.941406 760.367188 578.269531 C 760.367188 592.699219 752.445312 606.03125 739.578125 613.25 C 676.003906 648.910156 484.6875 756.257812 421.09375 791.921875 C 408.226562 799.136719 392.386719 799.136719 379.539062 791.921875 C 315.964844 756.257812 124.648438 648.910156 61.054688 613.25 C 48.207031 606.03125 40.289062 592.71875 40.289062 578.285156 C 40.289062 506.960938 40.289062 292.289062 40.289062 220.960938 C 40.289062 206.53125 48.207031 193.199219 61.074219 185.980469 C 124.632812 150.320312 315.984375 42.972656 379.539062 7.308594 Z M 379.539062 7.308594 "/>
<path style=" stroke:none;fill-rule:evenodd;fill:rgb(0%,52.549744%,83.139038%);fill-opacity:1;" d="M 46.046875 596.65625 C 41.007812 589.914062 40.289062 583.515625 40.289062 574.898438 C 40.289062 503.988281 40.289062 290.546875 40.289062 219.617188 C 40.289062 205.261719 48.1875 192.003906 61.019531 184.847656 C 124.367188 149.390625 315.035156 42.667969 378.382812 7.195312 C 391.210938 0.0195312 408.589844 0.171875 421.417969 7.347656 C 484.765625 42.800781 674.789062 148.613281 738.136719 184.070312 C 743.253906 186.949219 747.15625 190.414062 750.644531 194.976562 Z M 46.046875 596.65625 "/>
<path style=" stroke:none;fill-rule:evenodd;fill:rgb(100%,100%,100%);fill-opacity:1;" d="M 400.328125 134.46875 C 546.75 134.46875 665.617188 253.273438 665.617188 399.617188 C 665.617188 545.957031 546.75 664.761719 400.328125 664.761719 C 253.902344 664.761719 135.035156 545.957031 135.035156 399.617188 C 135.035156 253.273438 253.90625 134.46875 400.328125 134.46875 Z M 400.328125 267.042969 C 473.527344 267.042969 532.972656 326.433594 532.972656 399.617188 C 532.972656 472.777344 473.527344 532.1875 400.328125 532.1875 C 327.125 532.1875 267.679688 472.777344 267.679688 399.617188 C 267.679688 326.433594 327.105469 267.042969 400.328125 267.042969 Z M 400.328125 267.042969 "/>
<path style=" stroke:none;fill-rule:evenodd;fill:rgb(0%,45.878601%,75.289917%);fill-opacity:1;" d="M 750.605469 195.167969 C 760.382812 204.316406 760.195312 218.101562 760.195312 228.953125 C 760.195312 300.828125 759.589844 505.257812 760.367188 577.132812 C 760.441406 584.632812 757.960938 592.527344 754.246094 598.476562 L 392.613281 399.617188 Z M 750.605469 195.167969 "/>
<path style=" stroke:none;fill-rule:evenodd;fill:rgb(100%,100%,100%);fill-opacity:1;" d="M 532.972656 342.796875 L 570.871094 342.796875 L 570.871094 456.433594 L 532.972656 456.433594 Z M 665.617188 342.796875 L 703.515625 342.796875 L 703.515625 456.433594 L 665.617188 456.433594 Z M 665.617188 342.796875 "/>
<path style=" stroke:none;fill-rule:evenodd;fill:rgb(100%,100%,100%);fill-opacity:1;" d="M 495.074219 380.675781 L 608.769531 380.675781 L 608.769531 418.554688 L 495.074219 418.554688 Z M 627.71875 380.675781 L 741.417969 380.675781 L 741.417969 418.554688 L 627.71875 418.554688 Z M 627.71875 380.675781 "/>
</g>
</svg>
