<?xml version="1.0" encoding="UTF-8"?>
<svg xmlns="http://www.w3.org/2000/svg" xmlns:xlink="http://www.w3.org/1999/xlink" width="810pt" height="809.999993pt" viewBox="0 0 810 809.999993" version="1.2">
<defs>
<clipPath id="clip1">
  <path d="M 135.167969 539 L 406 539 L 406 810 L 135.167969 810 Z M 135.167969 539 "/>
</clipPath>
<clipPath id="clip2">
  <path d="M 135.167969 270 L 406 270 L 406 540 L 135.167969 540 Z M 135.167969 270 "/>
</clipPath>
<clipPath id="clip3">
  <path d="M 135.167969 0 L 406 0 L 406 271 L 135.167969 271 Z M 135.167969 0 "/>
</clipPath>
<clipPath id="clip4">
  <path d="M 405 0 L 675.167969 0 L 675.167969 271 L 405 271 Z M 405 0 "/>
</clipPath>
<clipPath id="clip5">
  <path d="M 405 270 L 675.167969 270 L 675.167969 540 L 405 540 Z M 405 270 "/>
</clipPath>
</defs>
<g id="surface1">
<g clip-path="url(#clip1)" clip-rule="nonzero">
<path style=" stroke:none;fill-rule:nonzero;fill:rgb(3.919983%,81.17981%,51.368713%);fill-opacity:1;" d="M 270.253906 809.746094 C 344.820312 809.746094 405.339844 749.304688 405.339844 674.828125 L 405.339844 539.914062 L 270.253906 539.914062 C 195.6875 539.914062 135.167969 600.355469 135.167969 674.828125 C 135.167969 749.304688 195.6875 809.746094 270.253906 809.746094 Z M 270.253906 809.746094 "/>
</g>
<g clip-path="url(#clip2)" clip-rule="nonzero">
<path style=" stroke:none;fill-rule:nonzero;fill:rgb(63.529968%,34.899902%,100%);fill-opacity:1;" d="M 135.167969 405 C 135.167969 330.527344 195.6875 270.085938 270.253906 270.085938 L 405.339844 270.085938 L 405.339844 539.914062 L 270.253906 539.914062 C 195.6875 539.914062 135.167969 479.472656 135.167969 405 Z M 135.167969 405 "/>
</g>
<g clip-path="url(#clip3)" clip-rule="nonzero">
<path style=" stroke:none;fill-rule:nonzero;fill:rgb(94.898987%,30.589294%,11.759949%);fill-opacity:1;" d="M 135.167969 135.171875 C 135.167969 60.695312 195.6875 0.253906 270.253906 0.253906 L 405.339844 0.253906 L 405.339844 270.085938 L 270.253906 270.085938 C 195.6875 270.085938 135.167969 209.644531 135.167969 135.171875 Z M 135.167969 135.171875 "/>
</g>
<g clip-path="url(#clip4)" clip-rule="nonzero">
<path style=" stroke:none;fill-rule:nonzero;fill:rgb(100%,44.709778%,38.42926%);fill-opacity:1;" d="M 405.339844 0.253906 L 540.421875 0.253906 C 614.992188 0.253906 675.507812 60.695312 675.507812 135.171875 C 675.507812 209.644531 614.992188 270.085938 540.421875 270.085938 L 405.339844 270.085938 Z M 405.339844 0.253906 "/>
</g>
<g clip-path="url(#clip5)" clip-rule="nonzero">
<path style=" stroke:none;fill-rule:nonzero;fill:rgb(10.198975%,73.728943%,99.609375%);fill-opacity:1;" d="M 675.507812 405 C 675.507812 479.472656 614.992188 539.914062 540.421875 539.914062 C 465.855469 539.914062 405.339844 479.472656 405.339844 405 C 405.339844 330.527344 465.855469 270.085938 540.421875 270.085938 C 614.992188 270.085938 675.507812 330.527344 675.507812 405 Z M 675.507812 405 "/>
</g>
</g>
</svg>
