
    <svg width="48" height="48" viewBox="0 0 48 48" fill="none" xmlns="http://www.w3.org/2000/svg">
    <title>figma Icons</title>
    <rect data-testid="card-bg" x="0.5" y="0.5" rx="4.5" height="99%" stroke="#E4E2E2" width="99%" fill="none" stroke-opacity="1"/>
    <svg width="48" height="48" fill="none" xmlns="http://www.w3.org/2000/svg"><path d="M23.563 18.756h-9.25v9.75h9.25v-9.75z" fill="#A259FF"/><path d="M14.313 29.806h9.25v8.125c0 .898-.69 1.625-1.542 1.625h-6.167c-.851 0-1.541-.727-1.541-1.625v-8.125z" fill="#0ACF83"/><path d="M28.342 8.031h-9.559c-2.469 0-4.47 2.11-4.47 4.713 0 2.602 2.001 4.712 4.47 4.712h9.559c2.469 0 4.47-2.11 4.47-4.712 0-2.603-2.001-4.713-4.47-4.713z" fill="#F24E1E"/><path d="M19.516 6c-3.505 0-6.36 3.009-6.36 6.703 0 2.019.858 3.832 2.204 5.06-2 1.134-3.36 3.357-3.36 5.909 0 2.266 1.08 4.27 2.714 5.484C13.08 30.37 12 32.374 12 34.641c0 3.694 2.854 6.703 6.36 6.703 3.504 0 6.359-3.01 6.359-6.703V19.406h4.047c3.505 0 6.359-3.008 6.359-6.703C35.125 9.01 32.27 6 28.765 6h-9.25zm0 2.438h9.25c2.23 0 4.047 1.913 4.047 4.265 0 2.352-1.816 4.266-4.047 4.266h-9.25c-2.232 0-4.047-1.914-4.047-4.266 0-2.352 1.815-4.265 4.047-4.265zm-1.157 10.968h4.047v8.532H18.36c-2.23 0-4.047-1.914-4.047-4.266 0-2.352 1.816-4.266 4.047-4.266zm10.985 0c-2.557 0-4.625 2.18-4.625 4.875s2.068 4.875 4.625 4.875c2.556 0 4.625-2.18 4.625-4.875 0-2.694-2.069-4.875-4.625-4.875zM18.359 30.375h4.047v4.266c0 2.351-1.815 4.265-4.047 4.265-2.23 0-4.047-1.914-4.047-4.265 0-2.352 1.816-4.266 4.047-4.266z" fill="#000"/><path d="M29.42 27.531c1.704 0 3.084-1.455 3.084-3.25s-1.38-3.25-3.083-3.25c-1.703 0-3.084 1.455-3.084 3.25s1.38 3.25 3.084 3.25z" fill="#1ABCFE"/></svg>
    </svg>