<?xml version="1.0" encoding="UTF-8"?>
<svg xmlns="http://www.w3.org/2000/svg" xmlns:xlink="http://www.w3.org/1999/xlink" width="810pt" height="809.999993pt" viewBox="0 0 810 809.999993" version="1.2">
<defs>
<clipPath id="clip1">
  <path d="M 5.449219 275 L 415 275 L 415 685 L 5.449219 685 Z M 5.449219 275 "/>
</clipPath>
</defs>
<g id="surface1">
<path style=" stroke:none;fill-rule:nonzero;fill:rgb(91.758728%,26.269531%,20.779419%);fill-opacity:1;" d="M 517.699219 261.90625 L 543.480469 262.347656 L 613.539062 192.308594 L 616.933594 162.632812 C 561.367188 113.140625 488.003906 83 407.835938 83 C 262.691406 83 140.1875 181.734375 103.929688 315.472656 C 111.574219 310.140625 127.925781 314.140625 127.925781 314.140625 L 267.914062 291.128906 C 267.914062 291.128906 275.105469 279.222656 278.753906 279.8125 C 282.835938 275.332031 287.136719 271.070312 291.664062 267.039062 C 296.1875 263.003906 300.910156 259.214844 305.828125 255.671875 C 310.75 252.128906 315.839844 248.851562 321.101562 245.839844 C 326.363281 242.828125 331.765625 240.097656 337.3125 237.648438 C 342.855469 235.199219 348.515625 233.042969 354.285156 231.183594 C 360.054688 229.324219 365.90625 227.769531 371.839844 226.519531 C 377.773438 225.269531 383.753906 224.328125 389.785156 223.703125 C 395.8125 223.074219 401.859375 222.761719 407.921875 222.761719 C 449.429688 222.851562 487.664062 237.511719 517.699219 261.769531 Z M 517.699219 261.90625 "/>
<path style=" stroke:none;fill-rule:nonzero;fill:rgb(25.878906%,52.159119%,95.689392%);fill-opacity:1;" d="M 711.917969 315.75 C 695.65625 255.769531 662.136719 202.808594 616.894531 162.632812 L 517.699219 261.808594 C 557.441406 293.871094 582.9375 342.9375 582.9375 397.859375 L 582.9375 415.363281 C 631.195312 415.363281 670.398438 454.644531 670.398438 502.804688 C 670.398438 551.050781 631.109375 590.246094 582.9375 590.246094 L 408.011719 590.246094 L 390.503906 607.851562 L 390.503906 712.796875 L 408.011719 730.210938 L 582.9375 730.210938 C 586.65625 730.207031 590.375 730.109375 594.09375 729.921875 C 597.808594 729.734375 601.519531 729.457031 605.222656 729.085938 C 608.921875 728.71875 612.613281 728.257812 616.296875 727.707031 C 619.976562 727.160156 623.640625 726.519531 627.289062 725.789062 C 630.9375 725.058594 634.566406 724.242188 638.175781 723.335938 C 641.785156 722.425781 645.367188 721.433594 648.925781 720.347656 C 652.488281 719.265625 656.019531 718.097656 659.519531 716.839844 C 663.023438 715.585938 666.492188 714.242188 669.929688 712.816406 C 673.367188 711.390625 676.765625 709.882812 680.128906 708.289062 C 683.492188 706.699219 686.816406 705.023438 690.09375 703.269531 C 693.375 701.511719 696.613281 699.679688 699.800781 697.765625 C 702.992188 695.851562 706.136719 693.859375 709.230469 691.792969 C 712.320312 689.722656 715.363281 687.582031 718.351562 685.363281 C 721.339844 683.148438 724.273438 680.859375 727.148438 678.5 C 730.023438 676.140625 732.839844 673.710938 735.597656 671.210938 C 738.355469 668.710938 741.046875 666.148438 743.679688 663.519531 C 746.3125 660.886719 748.875 658.195312 751.375 655.4375 C 753.875 652.679688 756.304688 649.867188 758.664062 646.992188 C 761.027344 644.117188 763.316406 641.183594 765.535156 638.195312 C 767.75 635.210938 769.894531 632.167969 771.960938 629.078125 C 774.03125 625.984375 776.023438 622.84375 777.9375 619.652344 C 779.851562 616.464844 781.6875 613.230469 783.441406 609.949219 C 785.199219 606.667969 786.871094 603.347656 788.464844 599.984375 C 790.058594 596.625 791.570312 593.226562 792.996094 589.789062 C 794.421875 586.351562 795.761719 582.882812 797.019531 579.382812 C 798.277344 575.882812 799.445312 572.351562 800.53125 568.792969 C 801.613281 565.234375 802.609375 561.648438 803.515625 558.042969 C 804.425781 554.433594 805.242188 550.804688 805.972656 547.160156 C 806.703125 543.511719 807.34375 539.847656 807.894531 536.167969 C 808.445312 532.488281 808.902344 528.796875 809.273438 525.097656 C 809.640625 521.394531 809.921875 517.6875 810.109375 513.972656 C 810.296875 510.253906 810.390625 506.539062 810.398438 502.816406 C 810.308594 425.421875 771.40625 356.957031 711.917969 315.761719 Z M 711.917969 315.75 "/>
<path style=" stroke:none;fill-rule:nonzero;fill:rgb(20.388794%,65.879822%,32.548523%);fill-opacity:1;" d="M 232.910156 730.324219 L 407.734375 730.324219 L 407.734375 590.246094 L 232.910156 590.246094 C 226.699219 590.246094 220.558594 589.589844 214.492188 588.269531 C 208.421875 586.953125 202.5625 585.003906 196.914062 582.425781 L 171.671875 590.160156 L 101.613281 660.195312 L 95.476562 683.835938 C 100.371094 687.570312 105.410156 691.097656 110.589844 694.417969 C 115.769531 697.738281 121.078125 700.84375 126.515625 703.734375 C 131.949219 706.621094 137.492188 709.285156 143.144531 711.722656 C 148.796875 714.160156 154.539062 716.363281 160.371094 718.332031 C 166.203125 720.296875 172.105469 722.027344 178.078125 723.515625 C 184.050781 725 190.074219 726.242188 196.148438 727.238281 C 202.222656 728.234375 208.328125 728.980469 214.460938 729.480469 C 220.597656 729.976562 226.742188 730.226562 232.898438 730.222656 Z M 232.910156 730.324219 "/>
<g clip-path="url(#clip1)" clip-rule="nonzero">
<path style=" stroke:none;fill-rule:nonzero;fill:rgb(98.429871%,73.728943%,1.959229%);fill-opacity:1;" d="M 232.910156 275.511719 C 229.1875 275.519531 225.46875 275.613281 221.753906 275.800781 C 218.035156 275.988281 214.328125 276.265625 210.625 276.636719 C 206.921875 277.003906 203.230469 277.464844 199.550781 278.015625 C 195.871094 278.566406 192.207031 279.203125 188.558594 279.933594 C 184.910156 280.664062 181.28125 281.480469 177.671875 282.390625 C 174.0625 283.296875 170.476562 284.292969 166.917969 285.375 C 163.359375 286.457031 159.828125 287.625 156.324219 288.882812 C 152.820312 290.136719 149.351562 291.480469 145.914062 292.90625 C 142.480469 294.332031 139.078125 295.839844 135.714844 297.433594 C 132.351562 299.027344 129.03125 300.699219 125.75 302.453125 C 122.46875 304.210938 119.234375 306.042969 116.042969 307.957031 C 112.851562 309.871094 109.710938 311.863281 106.617188 313.929688 C 103.523438 316 100.484375 318.140625 97.496094 320.359375 C 94.507812 322.574219 91.574219 324.863281 88.699219 327.222656 C 85.824219 329.585938 83.003906 332.015625 80.25 334.511719 C 77.492188 337.011719 74.796875 339.574219 72.167969 342.207031 C 69.535156 344.835938 66.96875 347.53125 64.472656 350.285156 C 61.972656 353.042969 59.542969 355.855469 57.179688 358.734375 C 54.820312 361.609375 52.53125 364.539062 50.3125 367.527344 C 48.09375 370.515625 45.953125 373.554688 43.882812 376.644531 C 41.816406 379.738281 39.824219 382.878906 37.910156 386.070312 C 35.996094 389.257812 34.160156 392.496094 32.402344 395.773438 C 30.648438 399.054688 28.972656 402.375 27.378906 405.738281 C 25.785156 409.097656 24.277344 412.496094 22.851562 415.933594 C 21.425781 419.371094 20.082031 422.839844 18.824219 426.339844 C 17.570312 429.84375 16.398438 433.371094 15.316406 436.929688 C 14.234375 440.488281 13.238281 444.074219 12.328125 447.679688 C 11.421875 451.289062 10.601562 454.917969 9.875 458.566406 C 9.144531 462.210938 8.503906 465.875 7.953125 469.554688 C 7.402344 473.234375 6.941406 476.925781 6.574219 480.625 C 6.203125 484.328125 5.925781 488.035156 5.738281 491.753906 C 5.550781 495.46875 5.453125 499.1875 5.449219 502.90625 C 5.449219 576.753906 40.828125 642.417969 95.578125 684.011719 L 197 582.613281 C 195.09375 581.753906 193.222656 580.828125 191.382812 579.835938 C 189.539062 578.839844 187.738281 577.78125 185.972656 576.660156 C 184.210938 575.535156 182.488281 574.351562 180.808594 573.105469 C 179.128906 571.859375 177.496094 570.554688 175.910156 569.191406 C 174.324219 567.828125 172.789062 566.410156 171.304688 564.9375 C 169.820312 563.460938 168.390625 561.9375 167.015625 560.363281 C 165.640625 558.785156 164.324219 557.164062 163.066406 555.492188 C 161.808594 553.824219 160.613281 552.109375 159.476562 550.355469 C 158.339844 548.597656 157.269531 546.804688 156.261719 544.972656 C 155.253906 543.140625 154.316406 541.273438 153.441406 539.371094 C 152.566406 537.472656 151.765625 535.542969 151.027344 533.585938 C 150.292969 531.628906 149.628906 529.648438 149.039062 527.640625 C 148.445312 525.636719 147.925781 523.613281 147.476562 521.570312 C 147.027344 519.527344 146.65625 517.472656 146.355469 515.402344 C 146.054688 513.332031 145.828125 511.257812 145.675781 509.171875 C 145.523438 507.085938 145.449219 504.996094 145.445312 502.90625 C 145.445312 454.660156 184.738281 415.464844 232.910156 415.464844 C 268.378906 415.464844 298.863281 436.839844 312.648438 467.019531 L 414.074219 365.621094 C 372.480469 310.882812 306.789062 275.511719 232.921875 275.511719 Z M 232.910156 275.511719 "/>
</g>
</g>
</svg>
