<?xml version="1.0" encoding="UTF-8"?>
<svg xmlns="http://www.w3.org/2000/svg" xmlns:xlink="http://www.w3.org/1999/xlink" width="810pt" height="809.999993pt" viewBox="0 0 810 809.999993" version="1.2">
<defs>
<clipPath id="clip1">
  <path d="M 387 162 L 803.847656 162 L 803.847656 726 L 387 726 Z M 387 162 "/>
</clipPath>
<clipPath id="clip2">
  <path d="M 5.449219 274 L 411 274 L 411 680 L 5.449219 680 Z M 5.449219 274 "/>
</clipPath>
</defs>
<g id="surface1">
<path style=" stroke:none;fill-rule:nonzero;fill:rgb(91.758728%,26.269531%,20.779419%);fill-opacity:1;" d="M 513.53125 260.636719 L 539.101562 261.074219 L 608.589844 191.527344 L 611.957031 162.0625 C 556.84375 112.914062 484.074219 82.988281 404.558594 82.988281 C 260.597656 82.988281 139.09375 181.027344 103.128906 313.828125 C 110.710938 308.535156 126.929688 312.503906 126.929688 312.503906 L 265.777344 289.65625 C 265.777344 289.65625 272.910156 277.832031 276.53125 278.417969 C 280.578125 273.964844 284.84375 269.738281 289.332031 265.730469 C 293.820312 261.726562 298.503906 257.964844 303.386719 254.445312 C 308.265625 250.929688 313.3125 247.675781 318.53125 244.683594 C 323.75 241.691406 329.109375 238.980469 334.609375 236.546875 C 340.109375 234.117188 345.722656 231.976562 351.445312 230.128906 C 357.167969 228.28125 362.972656 226.738281 368.859375 225.496094 C 374.742188 224.253906 380.675781 223.324219 386.65625 222.699219 C 392.636719 222.078125 398.632812 221.765625 404.648438 221.769531 C 445.816406 221.855469 483.738281 236.414062 513.53125 260.5 Z M 513.53125 260.636719 "/>
<g clip-path="url(#clip1)" clip-rule="nonzero">
<path style=" stroke:none;fill-rule:nonzero;fill:rgb(25.878906%,52.159119%,95.689392%);fill-opacity:1;" d="M 706.167969 314.101562 C 690.039062 254.542969 656.792969 201.953125 611.917969 162.0625 L 513.527344 260.539062 C 552.949219 292.375 578.238281 341.097656 578.238281 395.636719 L 578.238281 413.015625 C 626.101562 413.015625 664.988281 452.023438 664.988281 499.84375 C 664.988281 547.753906 626.015625 586.671875 578.238281 586.671875 L 404.734375 586.671875 L 387.371094 604.152344 L 387.371094 708.359375 L 404.734375 725.652344 L 578.238281 725.652344 C 581.929688 725.648438 585.617188 725.550781 589.300781 725.363281 C 592.988281 725.179688 596.667969 724.902344 600.339844 724.535156 C 604.011719 724.167969 607.675781 723.714844 611.324219 723.167969 C 614.972656 722.621094 618.609375 721.984375 622.226562 721.261719 C 625.847656 720.539062 629.445312 719.726562 633.027344 718.824219 C 636.605469 717.921875 640.160156 716.933594 643.691406 715.859375 C 647.222656 714.785156 650.722656 713.621094 654.199219 712.375 C 657.671875 711.128906 661.113281 709.796875 664.523438 708.382812 C 667.933594 706.964844 671.304688 705.464844 674.640625 703.886719 C 677.976562 702.304688 681.269531 700.640625 684.523438 698.898438 C 687.777344 697.15625 690.988281 695.332031 694.152344 693.433594 C 697.316406 691.53125 700.433594 689.554688 703.5 687.503906 C 706.570312 685.449219 709.585938 683.324219 712.550781 681.121094 C 715.511719 678.921875 718.421875 676.648438 721.273438 674.304688 C 724.128906 671.960938 726.921875 669.546875 729.65625 667.066406 C 732.390625 664.585938 735.0625 662.039062 737.671875 659.425781 C 740.28125 656.816406 742.824219 654.140625 745.304688 651.402344 C 747.785156 648.667969 750.195312 645.871094 752.535156 643.015625 C 754.878906 640.160156 757.148438 637.25 759.347656 634.285156 C 761.546875 631.316406 763.671875 628.300781 765.726562 625.230469 C 767.777344 622.15625 769.75 619.039062 771.652344 615.871094 C 773.550781 612.703125 775.371094 609.492188 777.113281 606.234375 C 778.851562 602.976562 780.515625 599.679688 782.09375 596.339844 C 783.675781 593.003906 785.171875 589.628906 786.585938 586.214844 C 788 582.804688 789.332031 579.359375 790.578125 575.882812 C 791.824219 572.40625 792.984375 568.902344 794.058594 565.367188 C 795.132812 561.832031 796.121094 558.273438 797.023438 554.691406 C 797.921875 551.109375 798.734375 547.507812 799.457031 543.886719 C 800.183594 540.261719 800.816406 536.625 801.363281 532.972656 C 801.910156 529.320312 802.363281 525.652344 802.730469 521.976562 C 803.097656 518.300781 803.375 514.621094 803.558594 510.929688 C 803.746094 507.242188 803.839844 503.550781 803.847656 499.855469 C 803.757812 423.003906 765.175781 355.019531 706.167969 314.113281 Z M 706.167969 314.101562 "/>
</g>
<path style=" stroke:none;fill-rule:nonzero;fill:rgb(20.388794%,65.879822%,32.548523%);fill-opacity:1;" d="M 231.058594 725.765625 L 404.460938 725.765625 L 404.460938 586.671875 L 231.058594 586.671875 C 224.898438 586.671875 218.808594 586.019531 212.789062 584.707031 C 206.769531 583.398438 200.957031 581.464844 195.355469 578.90625 L 170.316406 586.582031 L 100.832031 656.128906 L 94.746094 679.605469 C 99.597656 683.308594 104.59375 686.8125 109.734375 690.109375 C 114.875 693.410156 120.136719 696.492188 125.527344 699.359375 C 130.917969 702.230469 136.417969 704.875 142.023438 707.292969 C 147.628906 709.714844 153.324219 711.898438 159.109375 713.855469 C 164.894531 715.808594 170.75 717.523438 176.671875 719.003906 C 182.597656 720.480469 188.570312 721.710938 194.597656 722.699219 C 200.621094 723.691406 206.675781 724.433594 212.761719 724.925781 C 218.84375 725.421875 224.941406 725.667969 231.046875 725.664062 Z M 231.058594 725.765625 "/>
<g clip-path="url(#clip2)" clip-rule="nonzero">
<path style=" stroke:none;fill-rule:nonzero;fill:rgb(98.429871%,73.728943%,1.959229%);fill-opacity:1;" d="M 231.058594 274.148438 C 227.367188 274.152344 223.679688 274.246094 219.992188 274.433594 C 216.308594 274.621094 212.628906 274.894531 208.957031 275.261719 C 205.28125 275.628906 201.621094 276.085938 197.972656 276.632812 C 194.320312 277.175781 190.6875 277.8125 187.066406 278.539062 C 183.449219 279.261719 179.847656 280.074219 176.269531 280.976562 C 172.691406 281.875 169.136719 282.863281 165.605469 283.941406 C 162.074219 285.015625 158.570312 286.175781 155.097656 287.421875 C 151.621094 288.671875 148.179688 290 144.773438 291.417969 C 141.363281 292.832031 137.992188 294.332031 134.65625 295.914062 C 131.320312 297.496094 128.027344 299.15625 124.773438 300.898438 C 121.515625 302.644531 118.308594 304.464844 115.144531 306.367188 C 111.976562 308.265625 108.863281 310.242188 105.792969 312.296875 C 102.726562 314.347656 99.710938 316.476562 96.746094 318.675781 C 93.78125 320.878906 90.875 323.152344 88.019531 325.496094 C 85.167969 327.839844 82.375 330.25 79.640625 332.730469 C 76.90625 335.214844 74.234375 337.757812 71.625 340.371094 C 69.015625 342.984375 66.46875 345.65625 63.992188 348.394531 C 61.511719 351.132812 59.101562 353.925781 56.757812 356.78125 C 54.417969 359.636719 52.148438 362.546875 49.945312 365.515625 C 47.746094 368.480469 45.621094 371.5 43.570312 374.570312 C 41.519531 377.640625 39.542969 380.761719 37.644531 383.925781 C 35.746094 387.09375 33.925781 390.308594 32.183594 393.5625 C 30.441406 396.820312 28.78125 400.117188 27.203125 403.457031 C 25.621094 406.796875 24.125 410.171875 22.707031 413.582031 C 21.292969 416.992188 19.964844 420.4375 18.71875 423.914062 C 17.472656 427.390625 16.308594 430.898438 15.234375 434.433594 C 14.160156 437.964844 13.175781 441.523438 12.273438 445.105469 C 11.375 448.6875 10.5625 452.292969 9.835938 455.914062 C 9.113281 459.535156 8.476562 463.171875 7.933594 466.828125 C 7.386719 470.480469 6.929688 474.144531 6.5625 477.820312 C 6.199219 481.496094 5.921875 485.179688 5.734375 488.867188 C 5.550781 492.558594 5.453125 496.25 5.449219 499.941406 C 5.449219 573.273438 40.539062 638.476562 94.84375 679.777344 L 195.441406 579.089844 C 193.550781 578.238281 191.691406 577.316406 189.867188 576.332031 C 188.042969 575.34375 186.253906 574.292969 184.503906 573.179688 C 182.753906 572.0625 181.046875 570.886719 179.382812 569.648438 C 177.714844 568.410156 176.097656 567.117188 174.523438 565.761719 C 172.949219 564.410156 171.429688 563 169.957031 561.539062 C 168.484375 560.074219 167.066406 558.5625 165.703125 556.996094 C 164.339844 555.429688 163.03125 553.820312 161.785156 552.160156 C 160.535156 550.503906 159.347656 548.800781 158.222656 547.058594 C 157.097656 545.316406 156.035156 543.535156 155.035156 541.714844 C 154.035156 539.894531 153.101562 538.039062 152.238281 536.152344 C 151.371094 534.265625 150.574219 532.351562 149.84375 530.40625 C 149.117188 528.464844 148.457031 526.496094 147.867188 524.503906 C 147.28125 522.515625 146.765625 520.503906 146.320312 518.476562 C 145.875 516.449219 145.503906 514.40625 145.207031 512.351562 C 144.910156 510.296875 144.683594 508.234375 144.535156 506.164062 C 144.386719 504.09375 144.308594 502.019531 144.308594 499.941406 C 144.308594 452.035156 183.277344 413.117188 231.058594 413.117188 C 266.238281 413.117188 296.476562 434.34375 310.148438 464.308594 L 410.746094 363.621094 C 369.492188 309.269531 304.335938 274.148438 231.070312 274.148438 Z M 231.058594 274.148438 "/>
</g>
</g>
</svg>
