<?xml version="1.0" encoding="UTF-8"?>
<svg xmlns="http://www.w3.org/2000/svg" xmlns:xlink="http://www.w3.org/1999/xlink" width="810pt" height="809.999993pt" viewBox="0 0 810 809.999993" version="1.2">
<defs>
<clipPath id="clip1">
  <path d="M 10 10.632812 L 572 10.632812 L 572 613 L 10 613 Z M 10 10.632812 "/>
</clipPath>
<clipPath id="clip2">
  <path d="M 239 197 L 800 197 L 800 799.632812 L 239 799.632812 Z M 239 197 "/>
</clipPath>
</defs>
<g id="surface1">
<g clip-path="url(#clip1)" clip-rule="nonzero">
<path style=" stroke:none;fill-rule:nonzero;fill:rgb(0.779724%,46.669006%,74.119568%);fill-opacity:1;" d="M 415.316406 10.632812 C 383.039062 10.734375 360.664062 13.582031 333.621094 18.253906 C 253.75 32.171875 239.199219 61.394531 239.199219 115.25 L 239.199219 197.5625 L 426.003906 197.5625 L 426.003906 239.105469 L 141.8125 239.105469 C 87.101562 239.105469 39.214844 264.902344 24.042969 326.734375 C 6.898438 397.707031 6.128906 442.152344 24.042969 516.261719 C 37.636719 571.53125 67.589844 612.96875 122.324219 612.96875 L 197.710938 612.96875 L 197.710938 506.957031 C 197.710938 445.351562 253.460938 384.496094 317.347656 384.496094 L 467.539062 384.496094 C 519.90625 384.496094 571.316406 345.820312 571.316406 293.585938 L 571.316406 115.25 C 571.316406 64.59375 534.808594 26.707031 483.769531 18.210938 C 485.035156 18.085938 447.320312 10.507812 415.316406 10.632812 Z M 311.867188 93.710938 C 328.910156 93.710938 343 107.773438 343 124.910156 C 343 142.210938 328.910156 156.023438 311.867188 156.023438 C 294.496094 156.023438 280.734375 142.230469 280.734375 124.910156 C 280.734375 107.835938 294.496094 93.710938 311.867188 93.710938 Z M 311.867188 93.710938 "/>
</g>
<g clip-path="url(#clip2)" clip-rule="nonzero">
<path style=" stroke:none;fill-rule:nonzero;fill:rgb(100%,75.689697%,2.749634%);fill-opacity:1;" d="M 395.203125 799.902344 C 427.480469 799.796875 449.855469 796.953125 476.898438 792.277344 C 556.769531 778.363281 571.316406 749.136719 571.316406 695.28125 L 571.316406 612.96875 L 384.515625 612.96875 L 384.515625 571.429688 L 668.726562 571.429688 C 723.441406 571.429688 771.324219 545.632812 786.496094 483.796875 C 803.640625 412.828125 804.410156 368.378906 786.496094 294.269531 C 772.878906 239 742.929688 197.5625 688.195312 197.5625 L 612.808594 197.5625 L 612.808594 303.574219 C 612.808594 365.179688 557.058594 426.035156 493.171875 426.035156 L 342.980469 426.035156 C 290.613281 426.035156 239.199219 464.710938 239.199219 516.949219 L 239.199219 695.28125 C 239.199219 745.941406 275.710938 783.824219 326.75 792.320312 C 325.484375 792.445312 363.195312 800.027344 395.203125 799.902344 Z M 498.671875 716.820312 C 481.632812 716.820312 467.539062 702.757812 467.539062 685.621094 C 467.539062 668.320312 481.632812 654.507812 498.671875 654.507812 C 516.042969 654.507812 529.804688 668.300781 529.804688 685.621094 C 529.804688 702.695312 516.023438 716.820312 498.671875 716.820312 Z M 498.671875 716.820312 "/>
</g>
</g>
</svg>
